<?xml version="1.0" encoding="iso-8859-1"?>
<!-- Uploaded to: SVG Repo, www.svgrepo.com, Generator: SVG Repo Mixer Tools -->
<svg height="800px" width="800px" version="1.1" id="Capa_1" xmlns="http://www.w3.org/2000/svg" xmlns:xlink="http://www.w3.org/1999/xlink" 
	 viewBox="0 0 295.987 295.987" xml:space="preserve">
<g>
	<path style="fill:#010002;" d="M295.757,130.776C291.835,55.93,235.721,2.621,160.885,3.872
		C76.666,1.843,1.117,58.948,0.013,146.506c-1.338,105.556,98.572,164.303,195.469,140.339
		C263.917,269.924,299.2,196.567,295.757,130.776z M249.215,73.65c-19.64,9.943-38.938,20.478-58.823,29.822
		c8.169-20.005,17.122-39.673,26.711-59.074C229.966,51.562,240.795,61.477,249.215,73.65z M33.697,186.663
		c-3.242-10.497-5.298-21.582-6.233-32.923C21.171,77.43,90.726,29.376,160.885,31.068c10.932-0.185,21.272,0.984,30.927,3.367
		c-12.379,25.281-23.752,51.024-33.766,77.333c-2.469-0.511-5.042-0.805-7.713-0.805c-21.234-0.179-38.199,14.239-39.732,35.571
		c-0.299,4.117,0.125,7.898,1.028,11.389c-0.381,0.403-0.772,0.8-1.115,1.284C85.439,170.291,60.681,181.632,33.697,186.663z
		 M71.76,242.239c-11.188-8.072-20.108-18.324-26.951-30.056c16.459-3.443,32.226-9.116,47.717-15.583
		C85.396,211.715,78.428,226.901,71.76,242.239z M202.983,255.483c-30.687,14.952-71.159,10.269-102.548,0.843
		c-1.621-0.484-3.133-1.082-4.694-1.637c10.884-25.292,22.926-50.067,34.728-74.939c8.376,3.965,18.357,5.319,27.935,3.65
		c17.633-3.079,27.843-22.485,27.032-39.004c-0.141-2.981-0.658-5.814-1.425-8.512c26.564-11.259,51.823-25.014,77.599-38.079
		c3.182,8.811,5.455,18.292,6.587,28.441C273.946,177.835,250.722,232.22,202.983,255.483z"/>
</g>
</svg>